<?xml version="1.0" encoding="UTF-8"?>
<!DOCTYPE svg PUBLIC "-//W3C//DTD SVG 1.1//EN" "http://www.w3.org/Graphics/SVG/1.1/DTD/svg11.dtd">
<!-- Creator: CorelDRAW -->
<svg xmlns="http://www.w3.org/2000/svg" xml:space="preserve" width="190mm" height="215mm" style="shape-rendering:geometricPrecision; text-rendering:geometricPrecision; image-rendering:optimizeQuality; fill-rule:evenodd; clip-rule:evenodd"
viewBox="0 0 190 215"
 xmlns:xlink="http://www.w3.org/1999/xlink">
 <defs>
  <style type="text/css">
   <![CDATA[
    .str0 {stroke:#E3556A;stroke-width:0.7055}
    .fil0 {fill:#E3556A}
   ]]>
  </style>
 </defs>
 <g id="Layer_x0020_1">
  <metadata id="CorelCorpID_0Corel-Layer"/>
  <path class="fil0 str0" d="M105.86 109.034c33.2466,0.7912 55.2621,4.0074 65.9982,9.6475 10.7852,5.64 16.178,15.6831 16.178,30.08 0,1.7314 -0.0496,3.6609 -0.1981,5.7388 -0.1484,2.0779 -0.3956,4.0571 -0.6924,5.9866 -5.8872,4.5514 -11.1317,7.8167 -15.7824,9.8455 -4.6502,2.0283 -9.0538,3.0672 -13.3084,3.0672 -7.6683,0 -15.4855,-4.0074 -23.5494,-12.0222 -8.0645,-8.0148 -19.0478,-23.1042 -32.851,-45.2191l-2.7213 1.4346c8.3613,15.4359 14.6938,28.5467 18.949,39.3319 4.2546,10.7851 6.3821,18.8993 6.3821,24.44 0,7.0255 -2.4741,13.2592 -7.372,18.7012 -4.947,5.3928 -12.1706,9.9939 -21.7684,13.7541 -9.6474,-3.5621 -16.9698,-8.1141 -21.9168,-13.556 -4.9973,-5.442 -7.4708,-11.7751 -7.4708,-18.8993 0,-5.5904 2.1276,-13.8524 6.4318,-24.7369 4.3043,-10.8348 10.5871,-23.9456 18.8,-39.3319l-2.622 -1.1377c-13.8032,22.1149 -24.7865,37.2043 -32.9006,45.2191 -8.1136,8.0148 -15.9303,12.0222 -23.4998,12.0222 -4.3539,0 -8.9053,-1.0389 -13.6549,-3.1168 -4.7991,-2.078 -9.9442,-5.2936 -15.4359,-9.6475 -0.2968,-2.0282 -0.5446,-4.0571 -0.693,-6.0356 -0.1484,-1.9792 -0.1975,-3.9087 -0.1975,-5.8382 0,-14.3969 5.442,-24.44 16.3264,-30.08 10.8349,-5.6401 32.8014,-8.8563 65.8499,-9.6475l0 -3.0677c-33.0485,-0.7422 -55.015,-4.0074 -65.8499,-9.6966 -10.8844,-5.6897 -16.3264,-15.6836 -16.3264,-29.9813 0,-1.9295 0.0491,-3.9086 0.1975,-5.8878 0.1484,-1.9785 0.3962,-4.0074 0.693,-6.0356 5.6892,-4.3043 10.9336,-7.5199 15.6831,-9.5978 4.7992,-2.0779 9.2519,-3.1169 13.4077,-3.1169 7.5695,0 15.3862,4.0074 23.4998,12.0222 8.1141,8.0148 19.0974,23.1042 32.9006,45.2192l2.3251 -1.4346c-8.3116,-15.6837 -14.5453,-28.8436 -18.7012,-39.53 -4.1558,-10.6864 -6.2337,-18.7999 -6.2337,-24.44 0,-6.9267 2.4244,-13.1605 7.3224,-18.6024 4.8482,-5.442 12.1209,-10.0431 21.818,-13.7046 9.6475,3.6615 16.9692,8.2626 21.9168,13.7046 4.9967,5.4419 7.4708,11.6757 7.4708,18.6024 0,5.7388 -2.1275,14.0008 -6.3821,24.8853 -4.2552,10.8845 -10.4393,23.896 -18.5528,39.0847l2.3251 1.4346c14.3969,-22.9067 25.5286,-38.1942 33.3453,-45.8128 7.8173,-7.6193 15.4856,-11.4286 23.0551,-11.4286 4.1559,0 8.6085,1.039 13.4077,3.1169 4.7495,2.0779 9.9934,5.2935 15.6831,9.5978 0.2968,2.3251 0.544,4.4527 0.6924,6.3821 0.1485,1.9295 0.1981,3.8093 0.1981,5.5413 0,14.1989 -5.3432,24.1432 -16.0792,29.7832 -10.7355,5.6401 -32.7517,8.955 -66.097,9.8947l0 3.0677zm8.5588 -72.7765c0,-7.0255 -1.583,-12.8631 -4.6998,-17.4642 -3.1666,-4.6011 -8.0149,-8.1632 -14.5951,-10.7857 -6.9262,2.82 -11.9725,6.4318 -15.1391,10.9341 -3.1168,4.5018 -4.6998,10.2903 -4.6998,17.3158 0,5.64 1.4842,13.3083 4.403,23.1538 2.9684,9.7959 7.5199,22.1646 13.7045,37.1553l2.9188 0c5.9865,-15.1888 10.3895,-27.5078 13.2592,-37.0565 2.8201,-9.499 4.4527,-17.2661 4.8483,-23.2526zm66.79 121.063c0.2969,-1.1874 0.544,-2.3748 0.6924,-3.5622 0.1485,-1.2364 0.1981,-2.3747 0.1981,-3.5621 0,-10.538 -5.7388,-18.7503 -17.2666,-24.6381 -11.4776,-5.8872 -31.3662,-10.538 -59.7148,-13.902l-1.4352 2.5728c15.634,20.3339 27.6066,33.8403 35.8195,40.5193 8.2128,6.7281 16.0792,10.0927 23.5991,10.0927 3.4137,0 6.5306,-0.5937 9.4493,-1.8307 2.8697,-1.1874 5.7885,-3.1169 8.6582,-5.6897zm-79.2575 -49.8699c0,-1.8302 -0.6924,-3.4628 -2.0282,-4.7986 -1.3358,-1.3358 -2.9685,-2.0288 -4.7992,-2.0288 -2.0282,0 -3.7106,0.6433 -5.0464,1.9791 -1.3358,1.2861 -2.0282,2.9188 -2.0282,4.8483 0,1.9295 0.6924,3.5621 2.0282,4.8488 1.3358,1.2862 2.9685,1.9295 4.7992,1.9295 2.0283,0 3.7106,-0.5937 5.0464,-1.8804 1.3358,-1.2364 2.0282,-2.8691 2.0282,-4.8979zm-15.7824 6.7783l-1.4346 -2.5728c-28.3486,3.364 -48.1875,8.0148 -59.6657,13.902 -11.4285,5.8878 -17.1673,14.1001 -17.1673,24.6381 0,1.237 0.0491,2.4741 0.1975,3.7105 0.1484,1.1874 0.3962,2.3257 0.693,3.4138 2.7704,2.5728 5.6401,4.5023 8.6085,5.6897 2.9188,1.237 6.0853,1.8307 9.499,1.8307 7.3218,0 15.0398,-3.315 23.203,-9.9443 8.1141,-6.5802 20.1363,-20.1363 36.0666,-40.6677z"/>
 </g>
</svg>
